<?xml version="1.0" standalone="no"?>
<!DOCTYPE svg PUBLIC "-//W3C//DTD SVG 20010904//EN"
 "http://www.w3.org/TR/2001/REC-SVG-20010904/DTD/svg10.dtd">
<svg version="1.0" xmlns="http://www.w3.org/2000/svg"
 width="500.000000pt" height="500.000000pt" viewBox="0 0 500.000000 500.000000"
 preserveAspectRatio="xMidYMid meet">

<g transform="translate(0.000000,500.000000) scale(0.100000,-0.100000)"
fill="#000000" stroke="none">
<path color="red" d="M2250 4895 c-140 -56 -592 -236 -1005 -400 -412 -164 -753 -301 -757
-304 -4 -4 98 -51 228 -106 129 -54 236 -101 238 -104 6 -13 -14 -341 -25
-403 -10 -63 -13 -69 -48 -89 -48 -27 -71 -66 -71 -122 0 -33 6 -51 24 -70
l24 -26 -54 -188 c-56 -197 -61 -223 -43 -223 6 0 -30 -44 -78 -97 -411 -452
-628 -944 -678 -1531 l-6 -73 163 3 163 3 3 40 c32 491 223 967 540 1345 263
315 641 576 1025 709 273 95 453 124 757 125 242 1 355 -11 560 -60 331 -79
681 -254 943 -472 267 -222 454 -462 614 -787 36 -71 62 -119 58 -105 -15 57
-168 353 -235 455 -228 346 -546 642 -900 836 l-60 34 0 227 0 228 -132 65
c-231 112 -503 187 -783 214 l-90 8 85 2 c243 3 593 -75 839 -189 l87 -40 70
29 c38 16 237 95 443 176 233 93 368 151 360 156 -8 4 -446 187 -974 407 -528
220 -976 406 -995 414 -35 15 -38 14 -290 -87z m-1039 -1014 l144 -59 3 -271
c2 -268 2 -271 -19 -283 -12 -7 -78 -48 -147 -91 -69 -42 -126 -76 -127 -75
-1 2 -9 39 -17 82 -15 80 -15 80 10 115 28 43 26 104 -5 145 -19 23 -19 29 -7
88 8 38 14 132 14 236 0 94 2 172 4 172 2 0 68 -27 147 -59z"/>
<path d="M2493 3144 c-5 -12 -15 -14 -48 -10 -32 5 -45 3 -55 -9 -7 -9 -21
-13 -31 -10 -11 4 -19 2 -19 -5 0 -8 -10 -9 -30 -5 -38 8 -60 -8 -60 -46 0
-43 24 -59 85 -59 30 0 56 -4 59 -9 7 -10 -27 -21 -66 -21 -16 0 -28 -6 -28
-12 0 -7 -7 -3 -15 9 -10 14 -22 19 -35 16 -16 -4 -20 1 -26 35 -3 23 -12 43
-20 46 -8 3 -33 -18 -60 -49 -39 -46 -44 -58 -34 -70 7 -9 10 -27 6 -45 -5
-26 -3 -30 17 -30 13 0 29 6 36 13 11 10 12 7 7 -18 -12 -49 -32 -72 -70 -79
-20 -4 -36 -10 -36 -14 0 -4 29 -17 65 -30 62 -22 67 -22 94 -6 16 9 36 30 45
45 10 16 23 29 30 29 14 0 50 37 59 61 3 8 31 25 62 37 32 12 74 35 94 51 20
16 61 43 91 61 30 18 56 33 58 35 7 6 -12 35 -23 35 -7 0 -24 9 -38 20 -14 11
-44 27 -67 35 -36 13 -41 13 -47 -1z"/>
<path d="M2995 3081 c-6 -5 -26 -11 -45 -13 -27 -2 -41 -12 -65 -45 -34 -48
-41 -51 -50 -23 -3 11 -13 20 -21 20 -8 0 -14 -9 -14 -20 0 -11 -6 -20 -14
-20 -7 0 -16 9 -19 20 -3 13 -14 20 -28 20 -36 0 -109 -31 -109 -46 0 -9 -11
-14 -27 -14 -31 0 -96 -48 -76 -56 10 -4 9 -11 -3 -29 -10 -16 -29 -25 -62
-30 -90 -13 -107 -42 -44 -74 l37 -19 -28 -11 c-16 -6 -33 -11 -38 -11 -5 0
-9 -9 -9 -20 0 -15 13 -23 63 -38 56 -17 64 -23 85 -63 22 -44 25 -107 7 -166
-6 -19 -4 -23 14 -23 16 0 21 -6 21 -25 0 -18 -5 -25 -20 -25 -14 0 -20 -7
-20 -22 0 -15 3 -19 8 -11 6 10 12 10 28 -2 19 -15 19 -15 -2 -33 -12 -10 -29
-32 -38 -50 -18 -34 -22 -122 -6 -122 6 0 10 -21 10 -46 0 -51 14 -84 35 -84
9 0 23 -9 32 -20 10 -11 23 -20 29 -20 7 0 31 38 54 84 39 77 46 86 87 101 24
10 64 32 89 51 24 19 65 39 90 44 55 13 124 46 124 61 0 6 -9 13 -21 16 -12 4
-18 11 -15 20 3 8 6 17 6 20 0 3 9 -5 19 -18 14 -18 23 -21 31 -13 15 15 3 58
-21 80 -10 9 -19 22 -19 27 0 6 10 2 21 -9 22 -19 22 -19 15 8 -5 21 -2 28 13
33 24 7 43 30 46 53 1 9 5 25 9 35 6 12 3 24 -8 36 -14 15 -14 20 -3 29 10 9
17 8 25 0 16 -16 16 12 1 45 -9 20 -6 34 20 85 17 34 31 68 31 77 0 8 18 24
40 35 22 11 40 24 40 29 0 19 -33 42 -49 35 -9 -3 -25 -9 -36 -12 -11 -3 -29
-11 -40 -19 -33 -22 -39 -14 -10 15 26 26 26 27 7 30 -12 2 -30 -2 -41 -8 -17
-8 -21 -8 -21 4 0 8 -10 16 -22 18 -14 3 -4 7 27 12 78 12 84 15 53 32 -16 8
-28 21 -28 29 0 10 -11 15 -32 16 l-33 1 30 8 30 7 -37 16 c-41 19 -89 22
-103 8z"/>
<path d="M1891 2634 c-23 -30 -91 -166 -91 -184 0 -13 -27 -13 -35 1 -9 14
-47 -21 -41 -38 7 -16 -24 -33 -61 -33 -21 0 -36 9 -51 30 -16 21 -31 30 -50
30 -21 0 -24 -2 -12 -10 13 -9 11 -14 -12 -35 l-28 -24 -47 49 c-27 27 -55 56
-63 65 -28 31 -120 84 -135 79 -11 -5 -15 2 -15 25 0 30 -13 41 -25 21 -3 -5
-23 -10 -45 -10 -34 0 -45 -7 -98 -62 -85 -89 -144 -164 -229 -291 -73 -109
-83 -132 -61 -139 8 -3 8 -9 1 -23 -12 -20 -8 -29 35 -97 19 -29 21 -40 13
-56 -8 -15 -7 -29 4 -57 9 -20 13 -40 11 -44 -3 -4 6 -19 19 -31 14 -13 25
-28 25 -34 0 -6 -5 -5 -12 2 -7 7 -21 12 -32 12 -18 0 -17 -3 8 -29 32 -34 33
-27 -15 -188 -26 -87 -29 -107 -20 -140 6 -21 11 -50 11 -64 0 -15 12 -37 31
-55 18 -16 42 -53 55 -81 23 -51 54 -72 54 -36 0 15 1 15 18 0 16 -15 49 -17
233 -18 118 -1 207 -3 199 -5 -8 -2 -107 -11 -220 -19 -331 -26 -544 -61 -630
-105 l-40 -20 0 -65 0 -64 -32 7 c-18 4 -89 7 -158 7 -123 -1 -170 -11 -170
-37 0 -6 29 -57 65 -113 36 -56 65 -107 65 -115 0 -7 -30 -71 -67 -141 -37
-71 -64 -131 -61 -134 2 -3 19 0 37 6 61 21 173 5 346 -52 139 -45 171 -52
247 -53 83 -1 88 0 117 28 41 39 51 80 51 208 l0 106 38 6 c225 34 985 66
1562 66 571 0 1321 -32 1562 -66 l36 -5 4 -127 c2 -104 7 -133 23 -159 49 -81
144 -82 390 -2 144 46 170 52 255 53 52 0 103 -3 113 -8 10 -5 17 -4 17 1 0 6
-31 69 -69 141 l-68 132 68 110 c38 61 69 115 69 120 0 22 -60 32 -185 33 -71
0 -140 -3 -152 -7 -22 -7 -23 -5 -23 52 0 45 -4 63 -19 76 -60 54 -353 103
-791 132 -57 3 -122 13 -144 20 -45 16 -106 18 -106 4 0 -17 -64 -11 -136 11
-84 26 -88 28 -75 43 6 7 8 22 4 34 -7 28 -30 28 -162 1 -59 -12 -121 -18
-144 -16 -38 5 -45 2 -72 -28 l-30 -33 -612 -5 c-337 -3 -613 -3 -613 1 1 4
24 21 52 37 39 23 55 39 67 72 19 49 163 202 201 213 14 5 33 11 42 15 13 5
15 2 11 -14 -6 -25 5 -26 44 -6 15 9 42 21 58 27 l30 12 -32 4 c-40 4 -86 58
-59 68 24 9 19 23 -10 30 l-27 7 24 12 c13 7 55 16 94 20 65 7 125 33 125 55
0 4 -15 26 -33 48 -23 27 -41 67 -57 121 l-23 82 -27 -26 c-14 -14 -36 -25
-47 -25 -27 0 -38 31 -23 60 10 19 7 26 -27 55 -38 33 -45 35 -104 19 -9 -3
-19 -19 -23 -36 -3 -17 -13 -39 -22 -49 -13 -14 -14 -23 -3 -58 14 -47 6 -61
-41 -81 -25 -10 -33 -23 -46 -68 -14 -49 -18 -53 -28 -36 -6 10 -11 39 -11 64
0 40 -3 45 -24 48 -13 2 -48 21 -77 43 -30 22 -59 38 -66 37 -8 -2 -14 9 -16
28 -2 23 9 52 44 108 40 67 53 81 99 102 29 14 61 34 71 45 27 30 34 23 18
-17 -17 -42 -7 -63 22 -46 12 7 23 6 35 -1 28 -17 33 -1 12 30 -47 66 -47 69
2 100 25 15 54 44 64 64 18 34 18 38 3 53 -16 15 -14 16 18 10 19 -4 37 -8 39
-10 2 -2 10 1 17 7 16 13 49 -33 40 -56 -3 -9 3 -19 14 -25 26 -14 25 -53 -2
-90 -17 -24 -29 -30 -59 -30 -39 0 -74 -25 -48 -35 8 -2 21 -4 29 -3 36 3 48
-4 60 -32 7 -16 14 -30 15 -30 1 0 19 -7 40 -15 37 -16 37 -16 30 7 l-7 23 25
-24 26 -24 7 27 c3 15 1 39 -5 52 -6 14 -11 32 -11 41 0 14 2 14 19 -1 18 -16
21 -16 50 -1 17 8 31 21 31 27 0 6 -17 31 -37 56 -23 29 -33 47 -25 50 18 6
14 44 -8 72 -11 14 -20 31 -20 38 0 7 -11 17 -25 22 -18 7 -25 17 -25 35 0 14
-5 25 -11 25 -8 0 -8 5 1 15 15 19 -3 45 -31 45 -29 0 -121 -39 -135 -58 -12
-16 -13 -16 -14 0 0 9 12 31 26 48 18 20 23 35 17 41 -19 19 -62 -13 -99 -75
l-36 -60 31 -28 c17 -15 31 -32 31 -37 0 -15 -60 -71 -76 -71 -9 0 -14 11 -14
31 0 25 -3 29 -13 20 -8 -6 -17 -8 -20 -4 -11 10 -8 51 3 58 6 3 10 31 10 60
0 49 3 56 28 69 29 15 78 63 71 70 -2 2 -16 7 -30 11 -21 5 -31 1 -48 -21z
m1469 -1474 c570 -22 908 -53 1104 -102 100 -24 136 -43 136 -68 0 -19 -2 -19
-22 -6 -13 8 -34 17 -48 20 -14 4 -5 -4 20 -16 25 -13 47 -31 49 -42 2 -15 -1
-17 -15 -12 -17 6 -17 6 -1 -12 9 -10 17 -26 17 -36 0 -15 -2 -15 -22 -2 -13
8 -34 17 -48 20 -14 3 -6 -3 18 -14 41 -19 62 -44 48 -57 -3 -4 -12 -1 -18 5
-7 7 -16 12 -21 12 -5 0 2 -9 17 -21 30 -24 36 -55 9 -45 -17 6 -17 5 0 -8 17
-13 24 -46 10 -46 -5 0 -17 7 -27 15 -11 8 -25 15 -30 15 -6 0 6 -10 27 -22
21 -13 37 -30 37 -40 0 -22 1 -22 -39 -2 -18 9 -34 14 -37 12 -2 -3 14 -13 36
-23 26 -12 40 -25 40 -37 0 -17 -2 -18 -30 -3 -16 8 -33 15 -37 15 -4 -1 9
-10 30 -21 24 -12 37 -27 37 -39 0 -24 -3 -24 -41 -4 -17 8 -33 14 -35 11 -2
-2 14 -12 36 -22 22 -10 40 -24 40 -32 0 -16 0 -16 -42 1 -271 114 -1593 172
-2823 125 -559 -21 -958 -63 -1117 -118 l-56 -19 0 39 c-1 35 3 41 36 59 20
10 33 19 29 20 -4 0 -21 -7 -37 -15 -28 -15 -30 -14 -30 4 0 12 12 27 28 35
15 8 23 15 19 16 -5 0 -17 -5 -28 -10 -16 -9 -19 -7 -19 10 0 15 14 27 53 45
28 14 46 25 39 25 -7 0 -30 -9 -51 -20 l-39 -19 0 68 c0 66 1 69 32 85 28 15
19 15 -18 0 -11 -4 -14 5 -14 39 0 39 3 46 31 61 29 15 20 15 -18 0 -10 -4
-15 0 -15 10 0 71 470 137 1190 165 303 12 1306 12 1610 1z m-2857 -281 l37
-10 0 -218 c0 -208 1 -220 22 -246 19 -24 26 -26 61 -21 22 4 92 34 155 67 83
43 124 59 146 57 31 -3 31 -4 34 -65 3 -72 -15 -124 -52 -148 -45 -30 -166
-16 -331 39 -171 56 -238 70 -310 64 -30 -3 -55 -3 -55 -1 0 2 27 54 60 116
33 63 60 119 60 127 0 7 -30 60 -66 117 -36 58 -62 109 -57 113 19 19 236 26
296 9z m4449 -7 c5 -5 -16 -49 -56 -113 -36 -57 -66 -110 -66 -117 0 -8 26
-64 58 -125 31 -61 58 -114 60 -118 1 -3 -22 -4 -53 -1 -73 6 -145 -9 -313
-65 -160 -53 -283 -68 -327 -39 -41 27 -56 69 -53 144 3 65 4 67 31 70 19 2
70 -18 158 -62 139 -71 175 -78 205 -45 17 19 19 43 24 248 l5 226 45 7 c61 9
270 2 282 -10z m-3987 -307 c0 -40 0 -40 -36 -37 -28 3 -62 -11 -162 -62 -167
-88 -207 -86 -207 7 0 40 10 51 71 73 46 17 293 64 319 61 10 -2 15 -14 15
-42z m3365 25 c96 -14 218 -47 248 -66 16 -10 22 -24 22 -50 0 -95 -39 -96
-208 -8 -108 56 -132 65 -164 61 l-38 -5 0 37 c0 46 5 51 39 46 14 -3 60 -9
101 -15z"/>
<path d="M2320 1063 c0 -20 -8 -76 -17 -124 -13 -67 -21 -89 -34 -92 -13 -3
-17 -12 -14 -27 2 -13 6 -25 9 -27 10 -10 66 9 66 23 0 20 66 19 74 -1 3 -9
19 -15 41 -15 30 0 35 3 35 24 0 14 -7 26 -17 28 -14 4 -25 34 -46 126 l-28
122 -35 0 c-33 0 -34 -2 -34 -37z m59 -160 c1 -14 -5 -23 -14 -23 -16 0 -19
28 -8 70 l7 25 7 -25 c4 -14 7 -35 8 -47z"/>
<path d="M2542 1093 c-7 -3 -19 -18 -28 -35 -12 -24 -13 -36 -4 -64 10 -28 23
-41 66 -62 59 -29 72 -48 50 -71 -12 -12 -20 -12 -41 -3 -14 6 -25 18 -25 26
0 16 -34 31 -50 21 -5 -3 -10 -28 -10 -54 l0 -49 69 0 c76 -1 105 15 117 65
10 39 -13 72 -71 102 -39 21 -50 32 -50 51 0 36 38 39 61 6 10 -16 26 -26 40
-26 22 0 24 4 24 49 l0 49 -67 0 c-38 0 -74 -2 -81 -5z"/>
<path d="M2720 1075 c0 -14 5 -25 11 -25 13 0 1 -193 -12 -198 -5 -2 -9 -15
-9 -28 0 -22 4 -24 45 -24 41 0 45 2 45 25 0 14 -5 25 -11 25 -6 0 -9 14 -7
33 3 30 6 32 46 35 l42 3 0 -35 c0 -20 -4 -36 -10 -36 -5 0 -10 -11 -10 -24 0
-19 6 -24 37 -29 20 -4 40 -4 45 -1 11 7 10 41 -2 49 -6 3 -10 48 -10 100 0
52 4 97 10 100 6 3 10 17 10 31 0 22 -4 24 -45 24 -41 0 -45 -2 -45 -25 0 -14
5 -25 10 -25 6 0 10 -18 10 -40 0 -42 -8 -47 -57 -34 -18 5 -23 14 -23 40 0
19 5 34 10 34 6 0 10 11 10 25 0 23 -4 25 -45 25 -41 0 -45 -2 -45 -25z"/>
<path d="M3002 1070 c-24 -23 -28 -37 -36 -127 -7 -76 7 -119 45 -138 40 -21
74 -18 106 9 27 23 28 29 31 125 4 96 3 101 -22 126 -32 32 -92 35 -124 5z
m86 -42 c19 -19 16 -153 -4 -172 -40 -41 -64 -10 -64 84 0 77 9 100 40 100 9
0 21 -5 28 -12z"/>
<path d="M3195 964 c0 -93 -3 -128 -12 -131 -7 -3 -13 -16 -13 -29 0 -21 4
-24 38 -24 35 0 40 4 58 41 l20 42 18 -47 c16 -42 20 -46 52 -46 19 0 34 4 34
9 0 5 3 16 6 24 4 11 -2 16 -16 19 -16 2 -28 17 -42 53 l-19 49 22 48 c17 37
28 48 46 48 32 0 33 45 1 54 -42 11 -48 6 -90 -76 l-43 -83 -3 53 c-2 37 1 57
12 68 25 25 20 44 -13 44 -16 0 -35 2 -43 5 -11 4 -13 -19 -13 -121z"/>
<path d="M1820 1056 c0 -13 4 -26 8 -28 13 -5 25 -198 12 -198 -5 0 -10 -11
-10 -25 0 -23 4 -25 45 -25 41 0 45 2 45 25 0 14 -4 25 -10 25 -5 0 -10 16
-10 35 0 31 3 35 26 35 56 0 101 56 89 111 -11 49 -48 69 -126 69 -66 0 -69
-1 -69 -24z m138 -43 c17 -33 -4 -63 -45 -63 -20 0 -23 5 -23 40 0 38 2 40 30
40 18 0 33 -7 38 -17z"/>
<path d="M3510 1044 c0 -15 -12 -71 -27 -123 -20 -67 -33 -95 -45 -99 -11 -2
-18 -14 -18 -28 0 -21 5 -24 34 -24 21 0 36 6 40 15 9 26 76 16 76 -11 0 -8 6
-14 13 -14 6 0 22 -3 35 -6 19 -6 22 -3 22 25 0 19 -5 31 -13 31 -9 0 -18 37
-30 121 -9 67 -18 123 -19 124 -2 2 -18 6 -35 10 -31 6 -33 5 -33 -21z m43
-156 c5 -33 3 -38 -14 -38 -18 0 -20 4 -14 33 13 59 19 60 28 5z"/>
<path d="M820 1050 c-27 -6 -29 -8 -10 -8 14 -1 43 3 65 7 33 7 35 9 10 9 -16
-1 -46 -4 -65 -8z"/>
<path d="M1508 1050 c-16 -10 -15 -50 2 -50 12 0 24 -190 12 -202 -16 -16 -2
-48 22 -48 47 0 67 11 60 34 -4 11 -11 22 -15 24 -5 2 -9 18 -9 36 0 26 4 32
25 34 32 2 55 -31 55 -80 0 -39 6 -43 48 -32 15 4 22 14 22 29 0 13 -3 25 -8
27 -4 2 -15 22 -24 46 -13 32 -14 50 -7 69 12 33 -5 87 -34 108 -24 17 -122
20 -149 5z m120 -49 c8 -5 12 -21 10 -37 -2 -25 -8 -29 -35 -32 -32 -3 -33 -2
-33 37 0 36 3 41 23 41 12 0 28 -4 35 -9z"/>
<path d="M4263 1053 c9 -2 23 -2 30 0 6 3 -1 5 -18 5 -16 0 -22 -2 -12 -5z"/>
<path d="M4333 1043 c9 -2 23 -2 30 0 6 3 -1 5 -18 5 -16 0 -22 -2 -12 -5z"/>
<path d="M748 1033 c6 -2 18 -2 25 0 6 3 1 5 -13 5 -14 0 -19 -2 -12 -5z"/>
<path d="M4388 1033 c6 -2 18 -2 25 0 6 3 1 5 -13 5 -14 0 -19 -2 -12 -5z"/>
<path d="M675 1020 c-13 -5 -14 -9 -5 -9 8 0 24 4 35 9 13 5 14 9 5 9 -8 0
-24 -4 -35 -9z"/>
<path d="M4450 1020 c34 -11 60 -11 35 0 -11 5 -29 8 -40 8 -16 0 -15 -2 5 -8z"/>
<path d="M783 993 c9 -2 25 -2 35 0 9 3 1 5 -18 5 -19 0 -27 -2 -17 -5z"/>
<path d="M4333 993 c9 -2 25 -2 35 0 9 3 1 5 -18 5 -19 0 -27 -2 -17 -5z"/>
<path d="M723 983 c9 -2 23 -2 30 0 6 3 -1 5 -18 5 -16 0 -22 -2 -12 -5z"/>
<path d="M4408 983 c7 -3 16 -2 19 1 4 3 -2 6 -13 5 -11 0 -14 -3 -6 -6z"/>
<path d="M4458 973 c7 -3 16 -2 19 1 4 3 -2 6 -13 5 -11 0 -14 -3 -6 -6z"/>
<path d="M630 960 c-18 -12 -2 -12 25 0 13 6 15 9 5 9 -8 0 -22 -4 -30 -9z"/>
<path d="M4505 960 c27 -12 43 -12 25 0 -8 5 -22 9 -30 9 -10 0 -8 -3 5 -9z"/>
<path d="M820 950 c-34 -7 -34 -7 -5 -8 17 0 44 4 60 8 27 7 27 8 5 8 -14 -1
-41 -4 -60 -8z"/>
<path d="M4263 953 c9 -2 25 -2 35 0 9 3 1 5 -18 5 -19 0 -27 -2 -17 -5z"/>
<path d="M585 940 c-3 -6 1 -7 9 -4 18 7 21 14 7 14 -6 0 -13 -4 -16 -10z"/>
<path d="M4345 940 c17 -4 41 -8 55 -8 22 0 22 1 -5 8 -16 4 -41 8 -55 8 -22
0 -22 -1 5 -8z"/>
<path d="M748 933 c6 -2 18 -2 25 0 6 3 1 5 -13 5 -14 0 -19 -2 -12 -5z"/>
<path d="M675 920 c-13 -5 -14 -9 -5 -9 8 0 24 4 35 9 13 5 14 9 5 9 -8 0 -24
-4 -35 -9z"/>
<path d="M4450 920 c34 -11 60 -11 35 0 -11 5 -29 8 -40 8 -16 0 -15 -2 5 -8z"/>
<path d="M783 893 c9 -2 25 -2 35 0 9 3 1 5 -18 5 -19 0 -27 -2 -17 -5z"/>
<path d="M4343 893 c9 -2 23 -2 30 0 6 3 -1 5 -18 5 -16 0 -22 -2 -12 -5z"/>
<path d="M728 883 c6 -2 18 -2 25 0 6 3 1 5 -13 5 -14 0 -19 -2 -12 -5z"/>
<path d="M4408 883 c7 -3 16 -2 19 1 4 3 -2 6 -13 5 -11 0 -14 -3 -6 -6z"/>
<path d="M688 873 c7 -3 16 -2 19 1 4 3 -2 6 -13 5 -11 0 -14 -3 -6 -6z"/>
<path d="M4458 873 c7 -3 16 -2 19 1 4 3 -2 6 -13 5 -11 0 -14 -3 -6 -6z"/>
<path d="M630 860 c-18 -12 -2 -12 25 0 13 6 15 9 5 9 -8 0 -22 -4 -30 -9z"/>
<path d="M4505 860 c27 -12 43 -12 25 0 -8 5 -22 9 -30 9 -10 0 -8 -3 5 -9z"/>
<path d="M848 853 c12 -2 30 -2 40 0 9 3 -1 5 -23 4 -22 0 -30 -2 -17 -4z"/>
<path d="M4283 853 c9 -2 25 -2 35 0 9 3 1 5 -18 5 -19 0 -27 -2 -17 -5z"/>
<path d="M585 840 c-3 -6 1 -7 9 -4 18 7 21 14 7 14 -6 0 -13 -4 -16 -10z"/>
<path d="M788 843 c6 -2 18 -2 25 0 6 3 1 5 -13 5 -14 0 -19 -2 -12 -5z"/>
<path d="M4348 843 c6 -2 18 -2 25 0 6 3 1 5 -13 5 -14 0 -19 -2 -12 -5z"/>
<path d="M738 833 c6 -2 18 -2 25 0 6 3 1 5 -13 5 -14 0 -19 -2 -12 -5z"/>
<path d="M2054 825 c-4 -9 -2 -21 4 -27 15 -15 44 -1 40 19 -4 23 -36 29 -44
8z"/>
<path d="M4398 833 c6 -2 18 -2 25 0 6 3 1 5 -13 5 -14 0 -19 -2 -12 -5z"/>
<path d="M665 820 c-13 -5 -14 -9 -5 -9 8 0 24 4 35 9 13 5 14 9 5 9 -8 0 -24
-4 -35 -9z"/>
<path d="M4460 820 c34 -11 60 -11 35 0 -11 5 -29 8 -40 8 -16 0 -15 -2 5 -8z"/>
<path d="M1757 806 c-7 -17 18 -40 33 -31 5 3 10 15 10 26 0 23 -35 27 -43 5z"/>
<path d="M4530 800 c8 -5 20 -10 25 -10 6 0 3 5 -5 10 -8 5 -19 10 -25 10 -5
0 -3 -5 5 -10z"/>
<path d="M585 790 c-3 -6 1 -7 9 -4 18 7 21 14 7 14 -6 0 -13 -4 -16 -10z"/>
<path d="M773 793 c9 -2 25 -2 35 0 9 3 1 5 -18 5 -19 0 -27 -2 -17 -5z"/>
<path d="M4363 793 c9 -2 23 -2 30 0 6 3 -1 5 -18 5 -16 0 -22 -2 -12 -5z"/>
<path d="M685 780 c-25 -11 1 -11 35 0 20 6 21 8 5 8 -11 0 -29 -3 -40 -8z"/>
<path d="M4418 783 c6 -2 18 -2 25 0 6 3 1 5 -13 5 -14 0 -19 -2 -12 -5z"/>
<path d="M4468 773 c7 -3 16 -2 19 1 4 3 -2 6 -13 5 -11 0 -14 -3 -6 -6z"/>
<path d="M848 753 c12 -2 30 -2 40 0 9 3 -1 5 -23 4 -22 0 -30 -2 -17 -4z"/>
<path d="M4273 753 c9 -2 25 -2 35 0 9 3 1 5 -18 5 -19 0 -27 -2 -17 -5z"/>
<path d="M788 743 c6 -2 18 -2 25 0 6 3 1 5 -13 5 -14 0 -19 -2 -12 -5z"/>
<path d="M4348 743 c6 -2 18 -2 25 0 6 3 1 5 -13 5 -14 0 -19 -2 -12 -5z"/>
<path d="M738 733 c7 -3 16 -2 19 1 4 3 -2 6 -13 5 -11 0 -14 -3 -6 -6z"/>
<path d="M4398 733 c6 -2 18 -2 25 0 6 3 1 5 -13 5 -14 0 -19 -2 -12 -5z"/>
<path d="M4460 720 c34 -11 60 -11 35 0 -11 5 -29 8 -40 8 -16 0 -15 -2 5 -8z"/>
<path d="M658 713 c7 -3 16 -2 19 1 4 3 -2 6 -13 5 -11 0 -14 -3 -6 -6z"/>
<path d="M773 693 c9 -2 25 -2 35 0 9 3 1 5 -18 5 -19 0 -27 -2 -17 -5z"/>
<path d="M4353 693 c9 -2 25 -2 35 0 9 3 1 5 -18 5 -19 0 -27 -2 -17 -5z"/>
<path d="M685 680 c-14 -7 -8 -8 20 -3 22 3 42 7 44 9 9 8 -45 2 -64 -6z"/>
<path d="M4418 683 c6 -2 18 -2 25 0 6 3 1 5 -13 5 -14 0 -19 -2 -12 -5z"/>
<path d="M4468 673 c7 -3 16 -2 19 1 4 3 -2 6 -13 5 -11 0 -14 -3 -6 -6z"/>
<path d="M805 649 c-20 -5 -9 -6 30 -2 33 3 62 7 64 9 8 7 -63 2 -94 -7z"/>
<path d="M4273 653 c9 -2 25 -2 35 0 9 3 1 5 -18 5 -19 0 -27 -2 -17 -5z"/>
<path d="M4348 643 c6 -2 18 -2 25 0 6 3 1 5 -13 5 -14 0 -19 -2 -12 -5z"/>
<path d="M738 633 c7 -3 16 -2 19 1 4 3 -2 6 -13 5 -11 0 -14 -3 -6 -6z"/>
<path d="M4398 633 c6 -2 18 -2 25 0 6 3 1 5 -13 5 -14 0 -19 -2 -12 -5z"/>
<path d="M665 620 c-13 -5 -14 -9 -5 -9 8 0 24 4 35 9 13 5 14 9 5 9 -8 0 -24
-4 -35 -9z"/>
<path d="M4460 620 c34 -11 60 -11 35 0 -11 5 -29 8 -40 8 -16 0 -15 -2 5 -8z"/>
<path d="M603 600 c-34 -14 -28 -21 7 -9 17 6 30 13 30 15 0 6 -12 4 -37 -6z"/>
<path d="M4276 2464 c-11 -28 -7 -54 15 -95 11 -23 19 -43 16 -45 -2 -2 -37 7
-77 21 -41 14 -78 24 -83 22 -5 -1 3 -17 18 -35 25 -29 25 -32 7 -32 -11 0
-37 -7 -58 -16 -26 -11 -39 -13 -42 -5 -2 6 -23 -5 -47 -25 -46 -37 -63 -37
-95 0 -20 25 -28 19 -26 -22 1 -52 -37 -112 -71 -112 -18 0 -24 -4 -19 -15 3
-10 -1 -15 -13 -15 -17 0 -89 76 -80 85 2 2 28 -1 56 -7 40 -8 56 -8 68 2 30
25 14 41 -92 92 -60 28 -116 55 -125 59 -41 20 -102 12 -161 -22 -32 -19 -68
-39 -80 -46 -19 -11 -19 -13 -4 -19 16 -6 16 -8 -1 -33 -10 -14 -25 -42 -32
-61 -7 -19 -38 -58 -67 -86 -50 -48 -55 -56 -60 -107 l-6 -55 33 -7 c19 -4 36
-3 43 4 21 21 38 11 56 -31 17 -40 17 -88 1 -88 -5 0 -14 16 -20 35 -6 19 -15
35 -20 35 -20 0 -30 -30 -24 -69 6 -38 5 -41 -15 -41 -13 0 -45 -21 -74 -49
-29 -27 -69 -56 -89 -64 -42 -17 -48 -39 -21 -69 16 -18 23 -72 10 -84 -3 -3
-37 -7 -76 -8 -39 -1 -72 -4 -74 -6 -2 -3 -7 -30 -11 -61 -6 -55 -6 -56 32
-86 37 -30 40 -31 82 -20 34 10 53 24 87 67 25 30 48 65 53 78 9 20 16 22 79
22 62 0 74 -3 122 -36 30 -19 59 -42 66 -51 16 -21 5 -43 -21 -43 -20 -1 -20
-1 -2 -12 17 -9 24 -6 48 23 l29 34 -33 29 c-101 87 -109 98 -88 111 16 10
108 -65 135 -110 13 -22 37 -56 54 -75 27 -32 31 -34 46 -19 15 15 15 19 1 46
-15 29 -14 31 10 42 32 14 44 7 44 -27 0 -15 7 -35 14 -45 15 -20 80 -42 96
-32 5 3 18 1 29 -5 14 -7 27 -7 45 2 15 6 29 9 32 5 6 -6 -8 -78 -21 -109 -7
-17 19 -18 469 -18 l476 0 0 38 c0 53 -25 222 -49 327 -41 190 -126 414 -222
588 -76 135 -86 149 -109 137 -18 -9 -19 -8 -14 18 5 23 -6 42 -65 120 -40 51
-73 92 -75 92 -2 0 -7 -7 -10 -16z"/>
<path d="M1330 505 c0 -43 4 -75 10 -75 6 0 10 32 10 75 0 43 -4 75 -10 75 -6
0 -10 -32 -10 -75z"/>
<path d="M1470 505 c0 -87 18 -102 22 -18 l3 57 38 -57 c20 -31 42 -57 47 -57
6 0 10 32 10 75 0 87 -18 102 -22 18 l-3 -57 -38 57 c-20 31 -42 57 -47 57 -6
0 -10 -32 -10 -75z"/>
<path d="M1713 573 c26 -4 27 -6 27 -74 0 -39 4 -69 10 -69 6 0 10 30 10 69 0
64 2 70 23 74 12 2 -5 4 -38 4 -33 0 -48 -2 -32 -4z"/>
<path d="M1910 505 l0 -75 50 0 c28 0 50 5 50 10 0 6 -18 10 -40 10 -36 0 -40
3 -40 25 0 22 4 25 35 25 19 0 35 4 35 8 0 4 -15 8 -32 8 -29 -1 -33 3 -36 26
-3 25 0 27 40 31 42 3 42 4 -9 5 l-53 2 0 -75z"/>
<path d="M2120 505 c0 -43 4 -75 10 -75 6 0 10 16 10 35 0 28 4 35 20 35 13 0
26 -12 37 -35 9 -19 20 -35 25 -35 11 0 10 7 -7 39 -13 26 -13 30 0 41 18 15
19 42 3 58 -7 7 -31 12 -55 12 l-43 0 0 -75z m85 35 c0 -21 -5 -26 -32 -28
-31 -3 -33 -1 -33 28 0 29 2 31 33 28 27 -2 32 -7 32 -28z"/>
<path d="M2350 505 c0 -87 18 -102 22 -18 l3 57 38 -57 c20 -31 42 -57 47 -57
6 0 10 32 10 75 0 87 -18 102 -22 19 l-3 -57 -39 57 c-21 31 -42 56 -47 56 -5
0 -9 -34 -9 -75z"/>
<path d="M2606 509 c-29 -79 -29 -79 -17 -79 5 0 11 9 14 20 4 15 14 20 40 20
27 0 37 -5 42 -20 3 -11 10 -20 15 -20 5 0 -3 34 -18 75 -15 41 -32 75 -38 75
-7 0 -23 -32 -38 -71z m64 -15 c0 -2 -11 -4 -25 -4 -28 0 -30 8 -13 45 l12 26
13 -32 c7 -17 13 -33 13 -35z"/>
<path d="M2823 573 c26 -4 27 -6 27 -74 0 -39 4 -69 10 -69 6 0 10 30 10 69 0
68 1 70 28 74 15 2 -2 4 -38 4 -36 0 -53 -2 -37 -4z"/>
<path d="M3020 505 c0 -43 4 -75 10 -75 6 0 10 32 10 75 0 43 -4 75 -10 75 -6
0 -10 -32 -10 -75z"/>
<path d="M3176 564 c-23 -22 -21 -96 2 -117 58 -53 130 20 98 97 -13 32 -19
36 -50 36 -19 0 -42 -7 -50 -16z m82 -26 c25 -53 -13 -112 -58 -88 -19 10 -25
31 -20 75 5 51 56 59 78 13z"/>
<path d="M3400 505 c0 -87 18 -102 22 -18 l3 57 38 -57 c20 -31 42 -57 47 -57
6 0 10 32 10 75 0 88 -18 102 -22 18 l-3 -58 -38 58 c-21 31 -42 57 -48 57 -5
0 -9 -34 -9 -75z"/>
<path d="M3656 509 c-29 -79 -29 -79 -17 -79 5 0 11 9 14 20 4 15 14 20 40 20
26 0 36 -5 40 -20 3 -11 10 -20 15 -20 6 0 -2 34 -16 75 -15 41 -32 75 -38 75
-7 0 -23 -32 -38 -71z m64 -15 c0 -2 -11 -4 -25 -4 -28 0 -30 8 -13 45 l12 26
13 -32 c7 -17 13 -33 13 -35z"/>
<path d="M3870 505 l0 -75 45 0 c25 0 45 5 45 10 0 6 -16 10 -35 10 l-35 0 0
65 c0 37 -4 65 -10 65 -6 0 -10 -32 -10 -75z"/>
<path d="M1960 275 c-21 -25 -7 -49 38 -63 44 -14 58 -44 26 -56 -24 -9 -31
-8 -49 10 -20 20 -33 10 -15 -11 17 -21 79 -16 94 8 15 24 -2 48 -45 62 -23 8
-34 18 -34 31 0 26 44 32 62 8 7 -10 16 -15 19 -11 4 4 1 13 -6 22 -16 19 -74
20 -90 0z"/>
<path d="M2186 274 c-20 -20 -21 -83 0 -112 19 -28 65 -29 89 -2 25 27 12 37
-14 11 -12 -12 -25 -21 -30 -21 -21 0 -41 34 -41 69 0 58 34 79 72 44 23 -21
35 -11 13 11 -21 20 -69 21 -89 0z"/>
<path d="M2400 215 c0 -43 4 -75 10 -75 6 0 10 16 10 35 0 34 1 35 40 35 39 0
40 -1 40 -35 0 -19 5 -35 10 -35 6 0 10 32 10 75 0 43 -4 75 -10 75 -5 0 -10
-13 -10 -30 0 -28 -2 -30 -40 -30 -38 0 -40 2 -40 30 0 17 -4 30 -10 30 -6 0
-10 -32 -10 -75z"/>
<path d="M2656 274 c-23 -22 -21 -96 2 -117 38 -35 91 -14 105 42 6 26 -8 72
-26 83 -20 13 -65 9 -81 -8z m73 -7 c23 -28 24 -74 3 -95 -20 -20 -56 -20 -67
-1 -11 17 -8 79 5 94 15 19 44 20 59 2z"/>
<path d="M2891 277 c-28 -35 -21 -107 13 -129 20 -14 63 -8 79 10 22 24 22 95
1 116 -19 20 -77 21 -93 3z m77 -9 c28 -28 6 -118 -29 -118 -17 0 -49 40 -49
63 0 50 49 84 78 55z"/>
<path d="M3122 218 l-2 -78 46 0 c27 0 43 4 39 10 -3 6 -21 10 -40 10 l-34 0
-4 68 -3 67 -2 -77z"/>
</g>
</svg>
